<?xml version="1.0" encoding="UTF-8"?>
<svg width="1440px" height="1024px" viewBox="0 0 1440 1024" version="1.1" xmlns="http://www.w3.org/2000/svg" xmlns:xlink="http://www.w3.org/1999/xlink">
    <!-- Generator: Sketch 64 (93537) - https://sketch.com -->
    <title>Background</title>
    <desc>Created with Sketch.</desc>
    <defs>
        <linearGradient x1="50%" y1="0.907939189%" x2="50%" y2="97.3760733%" id="linearGradient-1">
            <stop stop-color="#FFFFFF" stop-opacity="0" offset="0%"></stop>
            <stop stop-color="#FFFFFF" stop-opacity="0.649912587" offset="100%"></stop>
        </linearGradient>
        <rect id="path-2" x="123" y="0" width="1440" height="1024"></rect>
    </defs>
    <g id="Page-3" stroke="none" stroke-width="1" fill="none" fill-rule="evenodd">
        <g id="Desktop-HD">
            <g id="Background" transform="translate(-123.000000, 0.000000)">
                <g id="Rectangle">
                    <use fill="#C3EDFF" xlink:href="#path-2"></use>
                    <use fill="url(#linearGradient-1)" xlink:href="#path-2"></use>
                </g>
                <g id="grass" transform="translate(123.000000, 827.000000)" fill-rule="nonzero">
                    <path d="M180,62 C147.410974,110.064427 149.012833,194 149.012833,194 L172.356365,194 C169.421021,140.837703 180,62 180,62 Z" id="Path" fill="#9ADB07"></path>
                    <path d="M142,32 C112.604838,100.94517 114.010715,194 114.010715,194 L137.498829,194 C134.545304,128.015666 142,32 142,32 Z" id="Path" fill="#9ADB07"></path>
                    <g id="Group" transform="translate(20.000000, 0.000000)" fill="#8EC100">
                        <path d="M70.6344411,194 C70.6344411,129.895652 78.8128097,48.0782609 104.753837,0 C93.4743202,91.4330435 98.8323867,194 98.8323867,194 L70.6344411,194 Z" id="Path"></path>
                        <path d="M139.725921,51.4521739 C110.260785,112.118504 111.670091,194 111.670091,194 L135.215468,194 C132.254743,135.93833 139.725921,51.4521739 139.725921,51.4521739 Z" id="Path"></path>
                        <path d="M0.0355287009,62.3465391 C32.9063444,110.284783 31.2906344,194 31.2906344,194 L7.7452568,194 C10.7059819,140.97727 0.0355287009,62.3465391 0.0355287009,62.3465391 Z" id="Path"></path>
                        <path d="M37.3525076,32.473913 C66.8193353,101.217391 65.4100302,194 65.4100302,194 L41.8731118,194 C44.8253776,128.208696 37.3525076,32.473913 37.3525076,32.473913 L37.3525076,32.473913 Z" id="Path"></path>
                    </g>
                    <path d="M76,17 C108.545532,92.3295143 106.988118,194 106.988118,194 L80.9840671,194 C84.2539559,121.905371 76,17 76,17 L76,17 Z" id="Path" fill="#9ADB07"></path>
                    <path d="M40,51 C69.3952452,111.858769 67.9892829,194 67.9892829,194 L44.4997545,194 C47.4534568,135.754154 40,51 40,51 Z" id="Path" fill="#9ADB07"></path>
                    <path d="M197.046414,197 L2.9535865,197 C1.32236572,197 0,195.656854 0,194 C0,192.343146 1.32236572,191 2.9535865,191 L197.046414,191 C198.677634,191 200,192.343146 200,194 C200,195.656854 198.677634,197 197.046414,197 Z" id="Path" fill="#8EC100"></path>
                </g>
                <g id="grass-copy-11" transform="translate(0.000000, 827.000000)" fill-rule="nonzero">
                    <path d="M180,62 C147.410974,110.064427 149.012833,194 149.012833,194 L172.356365,194 C169.421021,140.837703 180,62 180,62 Z" id="Path" fill="#9ADB07"></path>
                    <path d="M142,32 C112.604838,100.94517 114.010715,194 114.010715,194 L137.498829,194 C134.545304,128.015666 142,32 142,32 Z" id="Path" fill="#9ADB07"></path>
                    <g id="Group" transform="translate(20.000000, 0.000000)" fill="#8EC100">
                        <path d="M70.6344411,194 C70.6344411,129.895652 78.8128097,48.0782609 104.753837,0 C93.4743202,91.4330435 98.8323867,194 98.8323867,194 L70.6344411,194 Z" id="Path"></path>
                        <path d="M139.725921,51.4521739 C110.260785,112.118504 111.670091,194 111.670091,194 L135.215468,194 C132.254743,135.93833 139.725921,51.4521739 139.725921,51.4521739 Z" id="Path"></path>
                    </g>
                    <path d="M197.046414,197 L2.9535865,197 C1.32236572,197 0,195.656854 0,194 C0,192.343146 1.32236572,191 2.9535865,191 L197.046414,191 C198.677634,191 200,192.343146 200,194 C200,195.656854 198.677634,197 197.046414,197 Z" id="Path" fill="#8EC100"></path>
                </g>
                <g id="grass-copy-4" transform="translate(663.000000, 827.000000)" fill-rule="nonzero">
                    <path d="M180,62 C147.410974,110.064427 149.012833,194 149.012833,194 L172.356365,194 C169.421021,140.837703 180,62 180,62 Z" id="Path" fill="#9ADB07"></path>
                    <path d="M142,32 C112.604838,100.94517 114.010715,194 114.010715,194 L137.498829,194 C134.545304,128.015666 142,32 142,32 Z" id="Path" fill="#9ADB07"></path>
                    <g id="Group" transform="translate(20.000000, 0.000000)" fill="#8EC100">
                        <path d="M70.6344411,194 C70.6344411,129.895652 78.8128097,48.0782609 104.753837,0 C93.4743202,91.4330435 98.8323867,194 98.8323867,194 L70.6344411,194 Z" id="Path"></path>
                        <path d="M139.725921,51.4521739 C110.260785,112.118504 111.670091,194 111.670091,194 L135.215468,194 C132.254743,135.93833 139.725921,51.4521739 139.725921,51.4521739 Z" id="Path"></path>
                        <path d="M0.0355287009,62.3465391 C32.9063444,110.284783 31.2906344,194 31.2906344,194 L7.7452568,194 C10.7059819,140.97727 0.0355287009,62.3465391 0.0355287009,62.3465391 Z" id="Path"></path>
                        <path d="M37.3525076,32.473913 C66.8193353,101.217391 65.4100302,194 65.4100302,194 L41.8731118,194 C44.8253776,128.208696 37.3525076,32.473913 37.3525076,32.473913 L37.3525076,32.473913 Z" id="Path"></path>
                    </g>
                    <path d="M76,17 C108.545532,92.3295143 106.988118,194 106.988118,194 L80.9840671,194 C84.2539559,121.905371 76,17 76,17 L76,17 Z" id="Path" fill="#9ADB07"></path>
                    <path d="M40,51 C69.3952452,111.858769 67.9892829,194 67.9892829,194 L44.4997545,194 C47.4534568,135.754154 40,51 40,51 Z" id="Path" fill="#9ADB07"></path>
                    <path d="M197.046414,197 L2.9535865,197 C1.32236572,197 0,195.656854 0,194 C0,192.343146 1.32236572,191 2.9535865,191 L197.046414,191 C198.677634,191 200,192.343146 200,194 C200,195.656854 198.677634,197 197.046414,197 Z" id="Path" fill="#8EC100"></path>
                </g>
                <g id="grass-copy" transform="translate(262.000000, 827.000000)" fill-rule="nonzero">
                    <path d="M180,62 C147.410974,110.064427 149.012833,194 149.012833,194 L172.356365,194 C169.421021,140.837703 180,62 180,62 Z" id="Path" fill="#9ADB07"></path>
                    <path d="M142,32 C112.604838,100.94517 114.010715,194 114.010715,194 L137.498829,194 C134.545304,128.015666 142,32 142,32 Z" id="Path" fill="#9ADB07"></path>
                    <g id="Group" transform="translate(20.000000, 0.000000)" fill="#8EC100">
                        <path d="M70.6344411,194 C70.6344411,129.895652 78.8128097,48.0782609 104.753837,0 C93.4743202,91.4330435 98.8323867,194 98.8323867,194 L70.6344411,194 Z" id="Path"></path>
                        <path d="M139.725921,51.4521739 C110.260785,112.118504 111.670091,194 111.670091,194 L135.215468,194 C132.254743,135.93833 139.725921,51.4521739 139.725921,51.4521739 Z" id="Path"></path>
                        <path d="M0.0355287009,62.3465391 C32.9063444,110.284783 31.2906344,194 31.2906344,194 L7.7452568,194 C10.7059819,140.97727 0.0355287009,62.3465391 0.0355287009,62.3465391 Z" id="Path"></path>
                        <path d="M37.3525076,32.473913 C66.8193353,101.217391 65.4100302,194 65.4100302,194 L41.8731118,194 C44.8253776,128.208696 37.3525076,32.473913 37.3525076,32.473913 L37.3525076,32.473913 Z" id="Path"></path>
                    </g>
                    <path d="M76,17 C108.545532,92.3295143 106.988118,194 106.988118,194 L80.9840671,194 C84.2539559,121.905371 76,17 76,17 L76,17 Z" id="Path" fill="#9ADB07"></path>
                    <path d="M40,51 C69.3952452,111.858769 67.9892829,194 67.9892829,194 L44.4997545,194 C47.4534568,135.754154 40,51 40,51 Z" id="Path" fill="#9ADB07"></path>
                    <path d="M197.046414,197 L2.9535865,197 C1.32236572,197 0,195.656854 0,194 C0,192.343146 1.32236572,191 2.9535865,191 L197.046414,191 C198.677634,191 200,192.343146 200,194 C200,195.656854 198.677634,197 197.046414,197 Z" id="Path" fill="#8EC100"></path>
                </g>
                <g id="grass-copy-5" transform="translate(802.000000, 827.000000)" fill-rule="nonzero">
                    <path d="M180,62 C147.410974,110.064427 149.012833,194 149.012833,194 L172.356365,194 C169.421021,140.837703 180,62 180,62 Z" id="Path" fill="#9ADB07"></path>
                    <path d="M142,32 C112.604838,100.94517 114.010715,194 114.010715,194 L137.498829,194 C134.545304,128.015666 142,32 142,32 Z" id="Path" fill="#9ADB07"></path>
                    <g id="Group" transform="translate(20.000000, 0.000000)" fill="#8EC100">
                        <path d="M70.6344411,194 C70.6344411,129.895652 78.8128097,48.0782609 104.753837,0 C93.4743202,91.4330435 98.8323867,194 98.8323867,194 L70.6344411,194 Z" id="Path"></path>
                        <path d="M139.725921,51.4521739 C110.260785,112.118504 111.670091,194 111.670091,194 L135.215468,194 C132.254743,135.93833 139.725921,51.4521739 139.725921,51.4521739 Z" id="Path"></path>
                        <path d="M0.0355287009,62.3465391 C32.9063444,110.284783 31.2906344,194 31.2906344,194 L7.7452568,194 C10.7059819,140.97727 0.0355287009,62.3465391 0.0355287009,62.3465391 Z" id="Path"></path>
                        <path d="M37.3525076,32.473913 C66.8193353,101.217391 65.4100302,194 65.4100302,194 L41.8731118,194 C44.8253776,128.208696 37.3525076,32.473913 37.3525076,32.473913 L37.3525076,32.473913 Z" id="Path"></path>
                    </g>
                    <path d="M76,17 C108.545532,92.3295143 106.988118,194 106.988118,194 L80.9840671,194 C84.2539559,121.905371 76,17 76,17 L76,17 Z" id="Path" fill="#9ADB07"></path>
                    <path d="M40,51 C69.3952452,111.858769 67.9892829,194 67.9892829,194 L44.4997545,194 C47.4534568,135.754154 40,51 40,51 Z" id="Path" fill="#9ADB07"></path>
                    <path d="M197.046414,197 L2.9535865,197 C1.32236572,197 0,195.656854 0,194 C0,192.343146 1.32236572,191 2.9535865,191 L197.046414,191 C198.677634,191 200,192.343146 200,194 C200,195.656854 198.677634,197 197.046414,197 Z" id="Path" fill="#8EC100"></path>
                </g>
                <g id="grass-copy-2" transform="translate(393.000000, 827.000000)" fill-rule="nonzero">
                    <path d="M180,62 C147.410974,110.064427 149.012833,194 149.012833,194 L172.356365,194 C169.421021,140.837703 180,62 180,62 Z" id="Path" fill="#9ADB07"></path>
                    <path d="M142,32 C112.604838,100.94517 114.010715,194 114.010715,194 L137.498829,194 C134.545304,128.015666 142,32 142,32 Z" id="Path" fill="#9ADB07"></path>
                    <g id="Group" transform="translate(20.000000, 0.000000)" fill="#8EC100">
                        <path d="M70.6344411,194 C70.6344411,129.895652 78.8128097,48.0782609 104.753837,0 C93.4743202,91.4330435 98.8323867,194 98.8323867,194 L70.6344411,194 Z" id="Path"></path>
                        <path d="M139.725921,51.4521739 C110.260785,112.118504 111.670091,194 111.670091,194 L135.215468,194 C132.254743,135.93833 139.725921,51.4521739 139.725921,51.4521739 Z" id="Path"></path>
                        <path d="M0.0355287009,62.3465391 C32.9063444,110.284783 31.2906344,194 31.2906344,194 L7.7452568,194 C10.7059819,140.97727 0.0355287009,62.3465391 0.0355287009,62.3465391 Z" id="Path"></path>
                        <path d="M37.3525076,32.473913 C66.8193353,101.217391 65.4100302,194 65.4100302,194 L41.8731118,194 C44.8253776,128.208696 37.3525076,32.473913 37.3525076,32.473913 L37.3525076,32.473913 Z" id="Path"></path>
                    </g>
                    <path d="M76,17 C108.545532,92.3295143 106.988118,194 106.988118,194 L80.9840671,194 C84.2539559,121.905371 76,17 76,17 L76,17 Z" id="Path" fill="#9ADB07"></path>
                    <path d="M40,51 C69.3952452,111.858769 67.9892829,194 67.9892829,194 L44.4997545,194 C47.4534568,135.754154 40,51 40,51 Z" id="Path" fill="#9ADB07"></path>
                    <path d="M197.046414,197 L2.9535865,197 C1.32236572,197 0,195.656854 0,194 C0,192.343146 1.32236572,191 2.9535865,191 L197.046414,191 C198.677634,191 200,192.343146 200,194 C200,195.656854 198.677634,197 197.046414,197 Z" id="Path" fill="#8EC100"></path>
                </g>
                <g id="grass-copy-6" transform="translate(933.000000, 827.000000)" fill-rule="nonzero">
                    <path d="M180,62 C147.410974,110.064427 149.012833,194 149.012833,194 L172.356365,194 C169.421021,140.837703 180,62 180,62 Z" id="Path" fill="#9ADB07"></path>
                    <path d="M142,32 C112.604838,100.94517 114.010715,194 114.010715,194 L137.498829,194 C134.545304,128.015666 142,32 142,32 Z" id="Path" fill="#9ADB07"></path>
                    <g id="Group" transform="translate(20.000000, 0.000000)" fill="#8EC100">
                        <path d="M70.6344411,194 C70.6344411,129.895652 78.8128097,48.0782609 104.753837,0 C93.4743202,91.4330435 98.8323867,194 98.8323867,194 L70.6344411,194 Z" id="Path"></path>
                        <path d="M139.725921,51.4521739 C110.260785,112.118504 111.670091,194 111.670091,194 L135.215468,194 C132.254743,135.93833 139.725921,51.4521739 139.725921,51.4521739 Z" id="Path"></path>
                        <path d="M0.0355287009,62.3465391 C32.9063444,110.284783 31.2906344,194 31.2906344,194 L7.7452568,194 C10.7059819,140.97727 0.0355287009,62.3465391 0.0355287009,62.3465391 Z" id="Path"></path>
                        <path d="M37.3525076,32.473913 C66.8193353,101.217391 65.4100302,194 65.4100302,194 L41.8731118,194 C44.8253776,128.208696 37.3525076,32.473913 37.3525076,32.473913 L37.3525076,32.473913 Z" id="Path"></path>
                    </g>
                    <path d="M76,17 C108.545532,92.3295143 106.988118,194 106.988118,194 L80.9840671,194 C84.2539559,121.905371 76,17 76,17 L76,17 Z" id="Path" fill="#9ADB07"></path>
                    <path d="M40,51 C69.3952452,111.858769 67.9892829,194 67.9892829,194 L44.4997545,194 C47.4534568,135.754154 40,51 40,51 Z" id="Path" fill="#9ADB07"></path>
                    <path d="M197.046414,197 L2.9535865,197 C1.32236572,197 0,195.656854 0,194 C0,192.343146 1.32236572,191 2.9535865,191 L197.046414,191 C198.677634,191 200,192.343146 200,194 C200,195.656854 198.677634,197 197.046414,197 Z" id="Path" fill="#8EC100"></path>
                </g>
                <g id="grass-copy-8" transform="translate(1164.000000, 827.000000)" fill-rule="nonzero">
                    <path d="M180,62 C147.410974,110.064427 149.012833,194 149.012833,194 L172.356365,194 C169.421021,140.837703 180,62 180,62 Z" id="Path" fill="#9ADB07"></path>
                    <path d="M142,32 C112.604838,100.94517 114.010715,194 114.010715,194 L137.498829,194 C134.545304,128.015666 142,32 142,32 Z" id="Path" fill="#9ADB07"></path>
                    <g id="Group" transform="translate(20.000000, 0.000000)" fill="#8EC100">
                        <path d="M70.6344411,194 C70.6344411,129.895652 78.8128097,48.0782609 104.753837,0 C93.4743202,91.4330435 98.8323867,194 98.8323867,194 L70.6344411,194 Z" id="Path"></path>
                        <path d="M139.725921,51.4521739 C110.260785,112.118504 111.670091,194 111.670091,194 L135.215468,194 C132.254743,135.93833 139.725921,51.4521739 139.725921,51.4521739 Z" id="Path"></path>
                        <path d="M0.0355287009,62.3465391 C32.9063444,110.284783 31.2906344,194 31.2906344,194 L7.7452568,194 C10.7059819,140.97727 0.0355287009,62.3465391 0.0355287009,62.3465391 Z" id="Path"></path>
                        <path d="M37.3525076,32.473913 C66.8193353,101.217391 65.4100302,194 65.4100302,194 L41.8731118,194 C44.8253776,128.208696 37.3525076,32.473913 37.3525076,32.473913 L37.3525076,32.473913 Z" id="Path"></path>
                    </g>
                    <path d="M76,17 C108.545532,92.3295143 106.988118,194 106.988118,194 L80.9840671,194 C84.2539559,121.905371 76,17 76,17 L76,17 Z" id="Path" fill="#9ADB07"></path>
                    <path d="M40,51 C69.3952452,111.858769 67.9892829,194 67.9892829,194 L44.4997545,194 C47.4534568,135.754154 40,51 40,51 Z" id="Path" fill="#9ADB07"></path>
                    <path d="M197.046414,197 L2.9535865,197 C1.32236572,197 0,195.656854 0,194 C0,192.343146 1.32236572,191 2.9535865,191 L197.046414,191 C198.677634,191 200,192.343146 200,194 C200,195.656854 198.677634,197 197.046414,197 Z" id="Path" fill="#8EC100"></path>
                </g>
                <g id="grass-copy-10" transform="translate(1426.000000, 827.000000)" fill-rule="nonzero">
                    <path d="M142,32 C112.604838,100.94517 114.010715,194 114.010715,194 L137.498829,194 C134.545304,128.015666 142,32 142,32 Z" id="Path" fill="#9ADB07"></path>
                    <g id="Group" transform="translate(20.000000, 0.000000)" fill="#8EC100">
                        <path d="M70.6344411,194 C70.6344411,129.895652 78.8128097,48.0782609 104.753837,0 C93.4743202,91.4330435 98.8323867,194 98.8323867,194 L70.6344411,194 Z" id="Path"></path>
                        <path d="M139.725921,51.4521739 C110.260785,112.118504 111.670091,194 111.670091,194 L135.215468,194 C132.254743,135.93833 139.725921,51.4521739 139.725921,51.4521739 Z" id="Path"></path>
                        <path d="M0.0355287009,62.3465391 C32.9063444,110.284783 31.2906344,194 31.2906344,194 L7.7452568,194 C10.7059819,140.97727 0.0355287009,62.3465391 0.0355287009,62.3465391 Z" id="Path"></path>
                        <path d="M37.3525076,32.473913 C66.8193353,101.217391 65.4100302,194 65.4100302,194 L41.8731118,194 C44.8253776,128.208696 37.3525076,32.473913 37.3525076,32.473913 L37.3525076,32.473913 Z" id="Path"></path>
                    </g>
                    <path d="M76,17 C108.545532,92.3295143 106.988118,194 106.988118,194 L80.9840671,194 C84.2539559,121.905371 76,17 76,17 L76,17 Z" id="Path" fill="#9ADB07"></path>
                    <path d="M40,51 C69.3952452,111.858769 67.9892829,194 67.9892829,194 L44.4997545,194 C47.4534568,135.754154 40,51 40,51 Z" id="Path" fill="#9ADB07"></path>
                    <path d="M197.046414,197 L2.9535865,197 C1.32236572,197 0,195.656854 0,194 C0,192.343146 1.32236572,191 2.9535865,191 L197.046414,191 C198.677634,191 200,192.343146 200,194 C200,195.656854 198.677634,197 197.046414,197 Z" id="Path" fill="#8EC100"></path>
                </g>
                <g id="grass-copy-3" transform="translate(524.000000, 827.000000)" fill-rule="nonzero">
                    <path d="M180,62 C147.410974,110.064427 149.012833,194 149.012833,194 L172.356365,194 C169.421021,140.837703 180,62 180,62 Z" id="Path" fill="#9ADB07"></path>
                    <path d="M142,32 C112.604838,100.94517 114.010715,194 114.010715,194 L137.498829,194 C134.545304,128.015666 142,32 142,32 Z" id="Path" fill="#9ADB07"></path>
                    <g id="Group" transform="translate(20.000000, 0.000000)" fill="#8EC100">
                        <path d="M70.6344411,194 C70.6344411,129.895652 78.8128097,48.0782609 104.753837,0 C93.4743202,91.4330435 98.8323867,194 98.8323867,194 L70.6344411,194 Z" id="Path"></path>
                        <path d="M139.725921,51.4521739 C110.260785,112.118504 111.670091,194 111.670091,194 L135.215468,194 C132.254743,135.93833 139.725921,51.4521739 139.725921,51.4521739 Z" id="Path"></path>
                        <path d="M0.0355287009,62.3465391 C32.9063444,110.284783 31.2906344,194 31.2906344,194 L7.7452568,194 C10.7059819,140.97727 0.0355287009,62.3465391 0.0355287009,62.3465391 Z" id="Path"></path>
                        <path d="M37.3525076,32.473913 C66.8193353,101.217391 65.4100302,194 65.4100302,194 L41.8731118,194 C44.8253776,128.208696 37.3525076,32.473913 37.3525076,32.473913 L37.3525076,32.473913 Z" id="Path"></path>
                    </g>
                    <path d="M76,17 C108.545532,92.3295143 106.988118,194 106.988118,194 L80.9840671,194 C84.2539559,121.905371 76,17 76,17 L76,17 Z" id="Path" fill="#9ADB07"></path>
                    <path d="M40,51 C69.3952452,111.858769 67.9892829,194 67.9892829,194 L44.4997545,194 C47.4534568,135.754154 40,51 40,51 Z" id="Path" fill="#9ADB07"></path>
                    <path d="M197.046414,197 L2.9535865,197 C1.32236572,197 0,195.656854 0,194 C0,192.343146 1.32236572,191 2.9535865,191 L197.046414,191 C198.677634,191 200,192.343146 200,194 C200,195.656854 198.677634,197 197.046414,197 Z" id="Path" fill="#8EC100"></path>
                </g>
                <g id="grass-copy-7" transform="translate(1064.000000, 827.000000)" fill-rule="nonzero">
                    <path d="M180,62 C147.410974,110.064427 149.012833,194 149.012833,194 L172.356365,194 C169.421021,140.837703 180,62 180,62 Z" id="Path" fill="#9ADB07"></path>
                    <path d="M142,32 C112.604838,100.94517 114.010715,194 114.010715,194 L137.498829,194 C134.545304,128.015666 142,32 142,32 Z" id="Path" fill="#9ADB07"></path>
                    <g id="Group" transform="translate(20.000000, 0.000000)" fill="#8EC100">
                        <path d="M70.6344411,194 C70.6344411,129.895652 78.8128097,48.0782609 104.753837,0 C93.4743202,91.4330435 98.8323867,194 98.8323867,194 L70.6344411,194 Z" id="Path"></path>
                        <path d="M139.725921,51.4521739 C110.260785,112.118504 111.670091,194 111.670091,194 L135.215468,194 C132.254743,135.93833 139.725921,51.4521739 139.725921,51.4521739 Z" id="Path"></path>
                        <path d="M0.0355287009,62.3465391 C32.9063444,110.284783 31.2906344,194 31.2906344,194 L7.7452568,194 C10.7059819,140.97727 0.0355287009,62.3465391 0.0355287009,62.3465391 Z" id="Path"></path>
                        <path d="M37.3525076,32.473913 C66.8193353,101.217391 65.4100302,194 65.4100302,194 L41.8731118,194 C44.8253776,128.208696 37.3525076,32.473913 37.3525076,32.473913 L37.3525076,32.473913 Z" id="Path"></path>
                    </g>
                    <path d="M76,17 C108.545532,92.3295143 106.988118,194 106.988118,194 L80.9840671,194 C84.2539559,121.905371 76,17 76,17 L76,17 Z" id="Path" fill="#9ADB07"></path>
                    <path d="M40,51 C69.3952452,111.858769 67.9892829,194 67.9892829,194 L44.4997545,194 C47.4534568,135.754154 40,51 40,51 Z" id="Path" fill="#9ADB07"></path>
                    <path d="M197.046414,197 L2.9535865,197 C1.32236572,197 0,195.656854 0,194 C0,192.343146 1.32236572,191 2.9535865,191 L197.046414,191 C198.677634,191 200,192.343146 200,194 C200,195.656854 198.677634,197 197.046414,197 Z" id="Path" fill="#8EC100"></path>
                </g>
                <g id="grass-copy-9" transform="translate(1295.000000, 827.000000)" fill-rule="nonzero">
                    <path d="M180,62 C147.410974,110.064427 149.012833,194 149.012833,194 L172.356365,194 C169.421021,140.837703 180,62 180,62 Z" id="Path" fill="#9ADB07"></path>
                    <path d="M142,32 C112.604838,100.94517 114.010715,194 114.010715,194 L137.498829,194 C134.545304,128.015666 142,32 142,32 Z" id="Path" fill="#9ADB07"></path>
                    <g id="Group" transform="translate(20.000000, 0.000000)" fill="#8EC100">
                        <path d="M70.6344411,194 C70.6344411,129.895652 78.8128097,48.0782609 104.753837,0 C93.4743202,91.4330435 98.8323867,194 98.8323867,194 L70.6344411,194 Z" id="Path"></path>
                        <path d="M139.725921,51.4521739 C110.260785,112.118504 111.670091,194 111.670091,194 L135.215468,194 C132.254743,135.93833 139.725921,51.4521739 139.725921,51.4521739 Z" id="Path"></path>
                        <path d="M0.0355287009,62.3465391 C32.9063444,110.284783 31.2906344,194 31.2906344,194 L7.7452568,194 C10.7059819,140.97727 0.0355287009,62.3465391 0.0355287009,62.3465391 Z" id="Path"></path>
                        <path d="M37.3525076,32.473913 C66.8193353,101.217391 65.4100302,194 65.4100302,194 L41.8731118,194 C44.8253776,128.208696 37.3525076,32.473913 37.3525076,32.473913 L37.3525076,32.473913 Z" id="Path"></path>
                    </g>
                    <path d="M76,17 C108.545532,92.3295143 106.988118,194 106.988118,194 L80.9840671,194 C84.2539559,121.905371 76,17 76,17 L76,17 Z" id="Path" fill="#9ADB07"></path>
                    <path d="M40,51 C69.3952452,111.858769 67.9892829,194 67.9892829,194 L44.4997545,194 C47.4534568,135.754154 40,51 40,51 Z" id="Path" fill="#9ADB07"></path>
                    <path d="M197.046414,197 L2.9535865,197 C1.32236572,197 0,195.656854 0,194 C0,192.343146 1.32236572,191 2.9535865,191 L197.046414,191 C198.677634,191 200,192.343146 200,194 C200,195.656854 198.677634,197 197.046414,197 Z" id="Path" fill="#8EC100"></path>
                </g>
                <g id="sun" transform="translate(123.000000, 0.000000)" fill-rule="nonzero">
                    <path d="M382.864,222.13 L406.961,207.672 C409.427,206.192 409.427,202.618 406.961,201.138 L382.867,186.68 C370.945,179.526 367.789,163.654 376.066,152.482 L392.794,129.907 C394.506,127.596 393.139,124.294 390.294,123.871 L362.5,119.735 C348.748,117.689 339.757,104.233 343.13,90.745 L349.945,63.487 C350.643,60.697 348.115,58.169 345.325,58.867 L318.063,65.682 C304.576,69.053 291.121,60.063 289.075,46.312 L284.939,18.518 C284.516,15.673 281.213,14.305 278.903,16.018 L256.325,32.747 C245.155,41.024 229.283,37.866 222.13,25.945 L207.673,1.851 C206.193,-0.615 202.619,-0.615 201.139,1.851 L186.683,25.945 C179.53,37.867 163.658,41.023 152.488,32.747 L129.909,16.017 C127.598,14.305 124.296,15.673 123.873,18.517 L119.737,46.311 C117.691,60.061 104.235,69.052 90.749,65.681 L63.487,58.866 C60.697,58.168 58.169,60.696 58.867,63.486 L65.682,90.746 C69.054,104.233 60.064,117.689 46.312,119.735 L18.517,123.871 C15.672,124.294 14.304,127.597 16.017,129.907 L32.745,152.482 C41.023,163.652 37.866,179.526 25.944,186.68 L1.85,201.137 C-0.616,202.617 -0.616,206.191 1.85,207.671 L25.947,222.129 C37.868,229.282 41.025,245.154 32.748,256.323 L16.018,278.9 C14.306,281.21 15.673,284.513 18.518,284.936 L46.313,289.072 C60.064,291.118 69.055,304.574 65.683,318.061 L58.868,345.322 C58.17,348.112 60.698,350.64 63.488,349.942 L90.748,343.127 C104.236,339.755 117.692,348.746 119.738,362.497 L123.874,390.291 C124.297,393.136 127.6,394.504 129.91,392.791 L152.487,376.062 C163.657,367.785 179.529,370.942 186.681,382.864 L201.139,406.961 C202.619,409.427 206.193,409.427 207.673,406.961 L222.131,382.865 C229.284,370.943 245.157,367.787 256.327,376.063 L278.903,392.792 C281.213,394.504 284.516,393.137 284.939,390.292 L289.075,362.498 C291.121,348.747 304.577,339.756 318.065,343.128 L345.325,349.943 C348.115,350.641 350.643,348.113 349.945,345.323 L343.13,318.062 C339.758,304.575 348.749,291.119 362.5,289.073 L390.295,284.937 C393.14,284.514 394.508,281.211 392.795,278.901 L376.065,256.324 C367.787,245.154 370.943,229.282 382.864,222.13 Z" id="Path" fill="#FCF1CE"></path>
                    <circle id="Oval" fill="#F9DB7B" cx="204.405" cy="204.435" r="128"></circle>
                </g>
            </g>
        </g>
    </g>
</svg>