<?xml version="1.0" encoding="UTF-8"?>
<svg width="472px" height="512px" viewBox="0 0 472 512" version="1.1" xmlns="http://www.w3.org/2000/svg" xmlns:xlink="http://www.w3.org/1999/xlink">
    <!-- Generator: Sketch 64 (93537) - https://sketch.com -->
    <title>flower copy</title>
    <desc>Created with Sketch.</desc>
    <g id="Page-2" stroke="none" stroke-width="1" fill="none" fill-rule="evenodd">
        <g id="flower-copy" fill-rule="nonzero">
            <path d="M470.711,264.752 C452.784,307.46 395.161,410.919 239.176,478.771 C232.011,481.888 224.769,474.301 228.347,467.355 C249.767,425.767 313.237,326.684 459.179,254.135 C466.112,250.688 473.707,257.613 470.711,264.752 Z" id="Path" fill="#BEE86E"></path>
            <path d="M236,512 L236,512 C226.793,512 219.329,504.536 219.329,495.329 L219.329,320.288 L252.67,320.288 L252.67,495.329 C252.671,504.536 245.207,512 236,512 Z" id="Path" fill="#96BE4B"></path>
            <path d="M286.012,61.893 C266.194,33.286 250.709,13.345 242.497,3.124 C239.151,-1.041 232.849,-1.041 229.503,3.124 C221.292,13.345 205.806,33.287 185.988,61.893 L210.994,120.24 L269.341,120.24 L286.012,61.893 Z" id="Path" fill="#FFF9F9"></path>
            <path d="M207.552,145.706 C236.724,103.913 280.327,58.825 298.118,40.992 C302.106,36.995 308.787,38.001 311.383,43.014 C325.871,70.99 365.212,152.089 365.212,207.853 C365.212,279.155 307.41,336.958 236.107,336.958 C181.753,336.958 132.642,253.027 207.552,145.706 Z" id="Path" fill="#FFEAEC"></path>
            <path d="M264.555,145.706 C235.383,103.913 191.78,58.825 173.989,40.992 C170.001,36.995 163.32,38.001 160.724,43.014 C146.236,70.99 106.895,152.089 106.895,207.853 C106.895,279.155 164.697,336.958 236,336.958 C290.354,336.958 339.465,253.027 264.555,145.706 Z" id="Path" fill="#FFF3F4"></path>
            <path d="M1.289,264.752 C19.216,307.46 76.839,410.919 232.824,478.771 C239.989,481.888 247.231,474.301 243.653,467.355 C222.233,425.767 158.763,326.684 12.821,254.135 C5.888,250.688 -1.707,257.613 1.289,264.752 Z" id="Path" fill="#AFD755"></path>
        </g>
    </g>
</svg>