<?xml version="1.0" encoding="UTF-8"?>
<svg width="472px" height="512px" viewBox="0 0 472 512" version="1.1" xmlns="http://www.w3.org/2000/svg" xmlns:xlink="http://www.w3.org/1999/xlink">
    <!-- Generator: Sketch 64 (93537) - https://sketch.com -->
    <title>flower copy 5</title>
    <desc>Created with Sketch.</desc>
    <g id="Page-2" stroke="none" stroke-width="1" fill="none" fill-rule="evenodd">
        <g id="flower-copy-5" fill-rule="nonzero">
            <path d="M470.711,264.752 C452.784,307.46 395.161,410.919 239.176,478.771 C232.011,481.888 224.769,474.301 228.347,467.355 C249.767,425.767 313.237,326.684 459.179,254.135 C466.112,250.688 473.707,257.613 470.711,264.752 Z" id="Path" fill="#BEE86E"></path>
            <path d="M236,512 L236,512 C226.793,512 219.329,504.536 219.329,495.329 L219.329,320.288 L252.67,320.288 L252.67,495.329 C252.671,504.536 245.207,512 236,512 Z" id="Path" fill="#96BE4B"></path>
            <path d="M233.400944,6.25545793 C225.448835,16.1541928 210.64101,35.2158952 191.674881,62.4694191 L214.290973,115.24 L265.56952,115.24 L280.553456,62.7975694 C261.47797,35.3680612 246.584172,16.1940691 238.599213,6.25565347 C237.92979,5.42237603 236.966509,5.00025 236,5.00025 C235.033491,5.00025 234.07021,5.42237603 233.400944,6.25545793 Z" id="Path" stroke="#788CF9" stroke-width="10" fill="#9DFDEF"></path>
            <path d="M306.943056,45.3133249 C306.42892,44.3205035 305.513254,43.7187015 304.524072,43.5679194 C303.52316,43.4153491 302.456063,43.723198 301.657517,44.5235467 C283.979064,62.2437336 240.640266,107.038042 211.651986,148.567838 C179.682257,194.369777 170.734077,235.771935 175.522475,267.843054 C178.401563,287.126239 186.246859,302.947064 196.919249,314.083108 C207.855334,325.494304 221.757148,331.958 236.107,331.958 C270.377661,331.958 301.403811,318.066996 323.862345,295.608462 C346.321038,273.149769 360.212,242.123424 360.212,207.853 C360.212,152.838256 321.228964,72.8990901 306.943056,45.3133249 Z" id="Path" stroke="#788CF9" stroke-width="10" fill="#78F9F5"></path>
            <path d="M165.163979,45.3132588 C150.878036,72.8990901 111.895,152.838256 111.895,207.853 C111.895,242.123424 125.785962,273.149769 148.244655,295.608462 C170.703189,318.066996 201.729339,331.958 236,331.958 C250.349852,331.958 264.251666,325.494304 275.187751,314.083108 C285.860141,302.947064 293.705437,287.126239 296.584525,267.843054 C301.372923,235.771935 292.424743,194.369777 260.454991,148.567804 C231.466734,107.038042 188.127936,62.2437336 170.4493,44.5233631 C169.650937,43.723198 168.58384,43.4153491 167.582928,43.5679194 C166.593746,43.7187015 165.67808,44.3205035 165.163979,45.3132588 Z" id="Path" stroke="#788CF9" stroke-width="10" fill="#5FEEE8"></path>
            <path d="M1.289,264.752 C19.216,307.46 76.839,410.919 232.824,478.771 C239.989,481.888 247.231,474.301 243.653,467.355 C222.233,425.767 158.763,326.684 12.821,254.135 C5.888,250.688 -1.707,257.613 1.289,264.752 Z" id="Path" fill="#AFD755"></path>
        </g>
    </g>
</svg>